<svg id="Layer_1" data-name="Layer 1" xmlns="http://www.w3.org/2000/svg" viewBox="0 0 64 64"><path d="M44,8.71l.14,0s0,0,0-.06A.36.36,0,0,0,44,8.71Z"/><path d="M43.31,9.64c0-.05.08-.08.21-.11C43.27,9.57,43.16,9.61,43.31,9.64Z"/><path d="M43.52,9.53l.25,0h0Z"/><path d="M62.21,21.73l-.14.23a16.16,16.16,0,0,0-.87-1.77l-1.06-1.64c-.33-.56-.73-1.1-1.08-1.7s-.63-1.26-1-2c-.45-.38-.9-.82-1.34-1.26s-1-.81-1.44-1.18a3.89,3.89,0,0,0-2.54-1.09,9.72,9.72,0,0,0-1.19-1c-.39-.24-.76-.44-1.13-.63l-1.12-.6c-.41-.18-.85-.38-1.35-.65.07.39-.46.22-.92.07s-.94-.28-.54.23c.7,1.48,1.16,1,1.71,2.17l.09-.17A27.39,27.39,0,0,1,55.1,25a11.89,11.89,0,0,1,.56,2.61c0,.45.1.91.11,1.36s0,.92,0,1.38l0,.7-.1.68-.19,1.37-.3,1.35a10.25,10.25,0,0,1-.31,1.33c-.12.47-.25.95-.38,1.43s-.34.95-.5,1.43a26.33,26.33,0,0,1-1.2,2.79A13.79,13.79,0,0,1,52,42.73c-.26.42-.47.88-.75,1.27l-.81,1.16-.39.58-.43.51a2.05,2.05,0,0,1-.9.67,8.2,8.2,0,0,1-1.06.32c-2.29,2.2-6,3.9-9.48,4.92l.18,0a10,10,0,0,1-2.61.22c-.42,0-.83-.06-1.26-.07h-.64l-.67,0c0,.16-.28.16-.42.24-.15-.36-2.85,0-5.71-.39s-5.68-1.44-5.86-1.81a5.63,5.63,0,0,1-.59-.24,7.51,7.51,0,0,1-1.18-1c-.38-.37-.76-.71-1.1-1.11l-.95-1.22c-.15-.2-.31-.4-.45-.6l-.39-.65c-.26-.41-.52-.83-.78-1.23s-.43-.85-.66-1.24c-.49-.77-.84-1.58-1.31-2.26l-.51-.35-.46-.4a9.67,9.67,0,0,0-.94-.71c0-.68-.59-.55-.77-1.28a4.24,4.24,0,0,0,.21-2.24c-.13-.35-.41-.32-.54.22a15.94,15.94,0,0,1-1-4.35l-.48-1.9a1,1,0,0,1,.48-1.13c-.19-1.4.17-1,.49-2.38.27-.14.16-1,.15-2,0-.48,0-1-.06-1.36a2,2,0,0,1,.14-.76v.25a5.44,5.44,0,0,1,1.28-1.91,7.18,7.18,0,0,0,1.4-1.73,40.38,40.38,0,0,1,4.06-5.36,20.88,20.88,0,0,1,5.13-3.9c-.23-.49-.7.57-1.11,0a22,22,0,0,1,7-2,3.05,3.05,0,0,1,1.23.35c.76.08.39-.32.94-.35l.14.47c.73-.51,1.18.46,1.88.18,0-.19.29-.25.55-.24,0,.52.8,0,.75.46v0a.92.92,0,0,1,.45.07l.62-.32c.32-.15.71-.28,1.13-.44l1.19-.43.69-.2.13.11c.43.08.7-.25.47-.4l.53.15-.07,0,.53.15a.36.36,0,0,1-.08.51,1.18,1.18,0,0,1,1,.13c-.7-.63-1.65-1.25-2.47-2,.41-.09,1,.34,1.46.37a17.13,17.13,0,0,0,1.93,1.52c.17,0,.5-.51.76-.1,0,.45.41.17.59.57-.42,0-.7-.21-1.05-.36-.09.44.71.67.92.9.19-.07.77.34,1.23.42-.24.2-.09.33.07.49h0a.86.86,0,0,1,.21.29c.23.2.48.14.45-.06a.23.23,0,0,0,0-.26h.32c.73,0,1.48,0,1.35-.06s0-.15,0-.21a.14.14,0,0,0,.12-.08c.1-.07.18-.14.08-.24l-.17,0c-.55-.38,0-.8.57-1.21s1.32-.88.55-1.41c.37.89-.54.38-1.26,0a1.56,1.56,0,0,0-.59-1.08c-.49-.16-.37.07-.52.17-.2-.23-.64-.56-.45-.81-.52.17-.49-.48-1-.56s0,.16-.37.2c-.58-.25-1.4-.57-1.86-.8-.1-.34-.54-1,0-1.31.93.37-.57.58.44.81-.22-.77.92.12,1.27-.29A2.13,2.13,0,0,0,41.54,2l.08.12a4.11,4.11,0,0,1-1.94-.65c.17-.2,0-.42.36-.39l-.68-.2c-.11.05-.21.1,0,.2a1,1,0,0,1-.89-.26c0-.15-1,0-1.91.16s-1.79.39-1.73.32a1.07,1.07,0,0,1-.52-.15C34.73,1,35.37.94,36,.89a11.86,11.86,0,0,0,1.87-.2A2.58,2.58,0,0,0,36.8.63a11.63,11.63,0,0,0-2,.21c-.7.12-1.39.24-1.92.29s-.91.14-1,0c-.37.05-.8.13-.7.37-.62-.08.15-.49-.31-.69,0,0,.05.12-.09.13L30.34.67a5.86,5.86,0,0,1-1.66.4A3,3,0,0,0,27,1.63,3,3,0,0,1,28.12.41l.14.11c.08-.09.61-.27.55-.51A2.77,2.77,0,0,0,27,.46a4.11,4.11,0,0,1-.41-.1.79.79,0,0,1,0,.09c-.25-.09-.24-.13-.18-.24a.36.36,0,0,1,0-.07c-.28-.3-.88,0-1.55.33a6.43,6.43,0,0,1-2,.86c-.29.22,0,.13-.34.41A9.6,9.6,0,0,0,20.94,2c-.52.13-1,.27-1.65.48-.23.46-.19.58.4.66a5.61,5.61,0,0,0-.88.36c.35-1.19-1.95.26-1.54-1a2.14,2.14,0,0,0-1.3.69c.07.21.18.52-.38.94-.93.37-.69.31-1.5.59-.32-.1-.15-.37-.31-.52-.8,1-1.25.24-2.13,1.11-.52.58-1.6,1.65-1.24,2-.69.74-1,.51-1.18.18l-.6.6c.45-.52.91-1,1.39-1.56s1-1,1.58-1.41a27,27,0,0,1,3.46-2.48,20.26,20.26,0,0,0-8.28,5.5A12.64,12.64,0,0,0,4.42,12.4,9,9,0,0,0,4,14.6a8.36,8.36,0,0,0,.2,2.19,2.2,2.2,0,0,0-1.59.69,9.69,9.69,0,0,0-1.47,1.93A8.21,8.21,0,0,0,.19,21.5c-.18.6-.24,1-.14,1.07l0,1,.09,1c.05.67.1,1.34.14,2A65.43,65.43,0,0,0,2.53,39.05,38.37,38.37,0,0,0,8.37,51.1a32.56,32.56,0,0,0,9.11,8,12.9,12.9,0,0,0,1.59.88l1.61.81c1.06.53,2.17.89,3.18,1.3a45.23,45.23,0,0,0,5.27,1.47,18.6,18.6,0,0,0,2.35.4,10.57,10.57,0,0,1-1.31-.26l-1.29-.33a37.67,37.67,0,0,0,9-1.29,8.37,8.37,0,0,0-1.81-.7c.46,0,.94.07,1.4,0A7.82,7.82,0,0,1,40,60.33c1-.39,2-.74,2.57-1.07-.08.23.14.31.49.27a9.63,9.63,0,0,0,1.29-.32l-.44-.12a28.56,28.56,0,0,0,9.32-5.41,2,2,0,0,1,.92-.42l1-1.16a10.76,10.76,0,0,0,1-1.18c.23.55,2-1.6,1.31-.27a17.5,17.5,0,0,1,.89-1.53c.29-.51.6-1,.9-1.48a8.84,8.84,0,0,0,1.39-3.08A28.1,28.1,0,0,0,63.93,33.3,26.7,26.7,0,0,0,62.21,21.73ZM45.88,8.11c.15.1,0,.19-.17.26A.36.36,0,0,1,45.88,8.11Zm-1.56.54-.17,0c.07.24.56.45.83.58.09-.15,0-.23.06-.3a1.17,1.17,0,0,1,.41,0l.13,0,.05.07a1.63,1.63,0,0,1,.3.07.27.27,0,0,1,.1.18c-.1,0-.2-.08-.29-.14.19.12-.58.17-1.3.23-.14-.26-.59-.54-.43-.73l-.11,0a1.4,1.4,0,0,0-.12-.18A1.11,1.11,0,0,1,44.32,8.65Z"/></svg>