<svg id="Layer_1" data-name="Layer 1" xmlns="http://www.w3.org/2000/svg" viewBox="0 0 64 64"><path d="M7.41.38h0Z"/><path d="M7.78.25a.67.67,0,0,1-.37.13C7.71.33,7.9.28,7.78.25Z"/><path d="M63.56,57.92l-.14.17a43,43,0,0,0-5.23-7.73c-1.85-1.06-3.12-2.94-4.76-4.33a44.38,44.38,0,0,0-5.67-3.91c-.46-.21-.32-.82-.39-1.32-1.5-1.07-3-2.85-4.7-4a.47.47,0,0,1,.06.09c-.86-.69-1-1.73-1.8-2.4-.13.13-.25,0-.38,0,.1-.15-.07-.36-.39-.6.16-.59-.51-1.25-.91-1.12a1.74,1.74,0,0,1-.38.32c-1.68-.92-4-2-4-2.35a4.06,4.06,0,0,0,1.69-1.56L34.69,29c0-2,3.19-1.57,4.37-2.66l.23.93C40,26.68,42,27,41.06,25.74c-.61.31-1.09.16-1.36.78-.5-.31-.22-.78-.4-1.09.58-.63,1.13-1.72,2.24-1.57-.08-1.09,2-2.19.07-3.12,1.92-1.72,4.77-3.6,6-6.42,1,.63,1.23-.47,1.87-.31.38.78,1.29.31,2,.78,1.27-3.91,5.05-5.94,6.65-9.69-.31-1.88.46-2.19,1-3.13a11.47,11.47,0,0,0-6.63,2c.21,2.66,2.67-.15,3,.47.5.31.05.63-.07,1.1a2.67,2.67,0,0,1-3-.16l.42,1.25c-1.47,1.41-3.78,2.19-5.7,3.76-.26-1.25-.13-1.57,1.11-1.88-1.59-4.06-.47,2-2.94.78.67.47-.21,1.25-.65,1.72l1,.16.07-1.1c1.84-.62,1.56,1.72,1.91,2.19-1.43,1.88-4.15-.62-5.72,1.57.53.62.82.31,1.18.94-.25.78.42,1.25-.64,1.87-1.73,0-.59,2.5-2.3,2.82-1.64-.78.32-1.88-.67-2.5h-1c-.42.62-2.18.31-1.77,1.56l-.51-.47c-.22,1.25-1.72,2.19-1.31,3.44a9.58,9.58,0,0,0-3.45,3.25.94.94,0,0,0-.1-.1,10.23,10.23,0,0,0-1.75,0c0-.5-.53,0-.75-.41.48-1.94-.47-1.86-.52-1a12.07,12.07,0,0,1-1.86-1.65l-1-.46c-.32-.11-.26-.41-.08-.8-.72-.37-.26-.51-.71-1.2.28-.56-2.13-.76-2.17-1l.16,0c-.59-.73-.21-2-.83-2.67-1.5-2.1-3.8-3.75-5.33-5.55-.47.43.47.27-.1.87C15.43,9.66,15,8.12,14.06,7.06a2.56,2.56,0,0,1,0-1c-.16-.48-.41,0-.58-.26l.37-.43c-.67,0,0-.94-.54-1.09a.27.27,0,0,1-.42-.08c.42-.43-.38-.32,0-.69l0,0c-.06-.07-.14-.09-.15-.25-.28,0-2.69,0-3,0V3.21c-.2-.16-.6.07-.57.25L9,3.22H9L8.84,3a.7.7,0,0,1,.4-.45c-.28,0-.5,0-.56-.24a10.32,10.32,0,0,1,.1,2.21c-.3,0-.35-.5-.56-.62A4.4,4.4,0,0,0,8,2.25c-.09,0-.62.39-.57,0,.26-.4-.19-.16-.08-.53.33,0,.39.2.53.37.36-.41-.11-.63-.12-.86C7.6,1.32,7.44.9,7.14.83c.3-.19.25-.3.2-.44h0a.41.41,0,0,1,0-.25C7.25,0,7,0,6.93.22a.46.46,0,0,0-.15.24c-.64,0-1.36.08-1.29.16s-.08.15-.16.21a.18.18,0,0,0-.07.05C5.14,1,5,1,5.05,1.13l.14,0c.44.64-2.71,1.73-2.2,2.47.22-.75.59-.4.94-.17a1.15,1.15,0,0,0-.17.88c.21.14.28-.07.44-.15,0,.2.09.48-.19.71.44-.17,0,.41.3.47s.12-.14.37-.18a7.44,7.44,0,0,1,.58.83c-.18.3-.39.93-.92,1.15-.28-.39.74-.48.31-.74-.4.69-.46-.16-.94.19a.54.54,0,0,0,.35.7l0-.11c.24.09.69.31.57.77-.23.15-.3.37-.47.3l.2.26c.09,0,.18-.07.16-.17.25,0,.28.14.25.34s2.07.36,1.91.45c.08.07.06.19.06.28A8.31,8.31,0,0,0,5,8.81c-.08.36,2.89.84,2.61,1.32.13.11.32.21.5,0,.11.3-.45.33-.5.66,0,0,.09-.11.13-.06l-.12.4c.64,0,.7.88,1.46.79a3.59,3.59,0,0,1-1.25.39l.07-.15c-.09,0-.34-.07-.54.14.07.34.28.47.7.49a2.74,2.74,0,0,1-.05.28A.6.6,0,0,1,8.08,13c-.06.19-.09.21-.2.26l-.06,0c-.47.72,1.19.42,1.25,1.1.2,0,.12-.09.37-.07a6.27,6.27,0,0,0,.49,1.59.73.73,0,0,0,.61-.64l.22.38c-1,.41-.09,1.21-1.09,1.59a.4.4,0,0,0,.36.51c.19-.15.5-.4.71-.19a7.34,7.34,0,0,1,.11.83c-.17.28-.35.28-.52.47.67.09-.17.81.24,1.12s.76.57,1.16.19c.29.31,0,.6-.36.89l.2.29A15.58,15.58,0,0,1,9.4,18.63c.43,3.1,1.35,6.36,5.61,4.89-1.38,1.66-.35,4.07.06,3.74a9.77,9.77,0,0,1,1.79.39c3.52,1.13,5.54,4.15,7.57,7.32.64,1,2,2.68,3.34,4.36a.57.57,0,0,0-.75.49c.79-2-2.12-.94-2.25-2.5-2.46.78-2.32.62-4.92-.31-.69,1.25.81,2.19,1.2,3.12-.34,1.72-2.77.94-3.3,2.19-1.49-2.81-3.17-.15-4.19.94-1.48,1.25,1.45,2.35-.19,3.6-1.76-.31.09-2.81-2-3L11.17,45a19.93,19.93,0,0,1,1.25,3.76c-.29.31-.73.78-1.07.47.24-.94-.76-1.57-1.85-1.41a3.08,3.08,0,0,0,.26,1.25c3.56,1.09-1.16,1.41-.66,3.59-.6,4.38-4.06-1.4-5.53,2C6.36,55.93,3,57.34,3,58.9c-.74.63-1.55.31-2.67.16,0,.4-.38,1-.07,1.51,3.1,2.3,7.24,3.25,11.55,3.43a.31.31,0,0,0-.06-.26c1-1.09,3.34-1.72,3.14-4.22-.76.31-1.1,0-2.16.63-.79-2,1.49-1.1,2.22-1.88-.92.31-.72-1.09-.29-1.72,1.37-.63,2.81-2.35,4.12-3.76.07-1.09,2.82-2.19,1.16-3.28.71-.94,1.89,0,2.82-.31C22.92,45.76,29,48.88,29,45c.71.94,1.57-.15,2-.47a10.52,10.52,0,0,0,1.15-1.16,17.1,17.1,0,0,1,1.72.74,3.14,3.14,0,0,0,.24-1.22l.26.55c1-.26,1.83.61,2.5.74-.42.25-.16.63.06,1l.11-.33C38,46,39.5,46.91,40.41,47.88a.53.53,0,0,1,.05.52l1.16.65c-.51.37.37,1.13-.35,1,1.21.15,1.58,1.15,2.77,1.25a38.29,38.29,0,0,0,8.33,5.95l.11-.22c1.13.54,2.75.4,3.48,1.69,1.32.13,2.67.85,3.89.22,1,.7,1.77.57,2.83,1.15.25-.67,1.36.24,1.31-.51C64.09,58.38,63.51,58.89,63.56,57.92ZM5,1.78c-.06-.08.06-.16.26-.25A.75.75,0,0,1,5,1.78Zm1.47-.6.13,0C6.67.94,6.41.78,6.27.67c-.15.15-.14.22-.2.28a.61.61,0,0,1-.3,0L5.7.93V.87a.49.49,0,0,1-.19,0,.21.21,0,0,1,0-.17c.09,0,.11.07.15.12C5.59.67,6.19.57,6.78.48c0,.23.18.45,0,.63l.1,0v.16A.58.58,0,0,1,6.47,1.18ZM29,42.94c-2.31-.11-.77-1.22-.29-2.36.56.74,1,1.43,1.37,2A1.26,1.26,0,0,1,29,42.94Z"/><path d="M6.73,1.11l-.13,0s0,0,0,.05A.49.49,0,0,0,6.73,1.11Z"/><path d="M24,48.88c.31,1.88,1.92.31,2.37,0l-.5-.31C25.29,47.79,24.22,48.26,24,48.88Z"/><path d="M41.31,30.9c-1-.94-2.69-.16-3.12.47,1.51,1.09,3-.16,3.77-.32C41.78,30.17,41.47,30.9,41.31,30.9Z"/><path d="M37.05,28.87c.64.15.92-.32,1-.78h-.63C37.31,28.24,36.21,28.24,37.05,28.87Z"/><path d="M45,27.46c-.15-.3-.11-1.41-1.18-.94l-.58.62,1.33.94Z"/><path d="M46,26.36c.3-.31,1,0,.93-.31l-.21-.63C46.1,25.58,46,25.89,46,26.36Z"/><path d="M42.41,24.8c-.28.47,1.3.47,1.1,0C43,24.8,42.52,24.17,42.41,24.8Z"/><path d="M39.21,14.33c-.9.63-.68,1.41-1.08,2.34C38.53,15.74,39.78,15.58,39.21,14.33Z"/><path d="M18.54,56.23l.49.16.21-1.25C18.61,55.14,18.5,55.76,18.54,56.23Z"/><path d="M22,50.6c-1.06.63-1.08,2.35-2,3.13l.08,1.1c1.37-.63,3.47-2,4.13-3.76C23.54,49.67,23.47,50.76,22,50.6Z"/></svg>